<svg width="1440" height="573" viewBox="0 0 1440 573" fill="none" xmlns="http://www.w3.org/2000/svg">
<path d="M1440 2.95361H0V564.139H1440V2.95361Z" fill="url(#paint0_linear_91_65)"/>
<g filter="url(#filter0_d_91_65)">
<path d="M1439.5 403.66C1408.85 403.66 1384 427.903 1384 457.809H1439.5V403.66Z" fill="white"/>
</g>
<path d="M700 536.572C702.209 536.572 704 534.809 704 532.634C704 530.459 702.209 528.696 700 528.696C697.791 528.696 696 530.459 696 532.634C696 534.809 697.791 536.572 700 536.572Z" fill="#5283FF"/>
<path d="M720 536.572C722.209 536.572 724 534.809 724 532.634C724 530.459 722.209 528.696 720 528.696C717.791 528.696 716 530.459 716 532.634C716 534.809 717.791 536.572 720 536.572Z" fill="#D1D6E3"/>
<path d="M740 536.572C742.209 536.572 744 534.809 744 532.634C744 530.459 742.209 528.696 740 528.696C737.791 528.696 736 530.459 736 532.634C736 534.809 737.791 536.572 740 536.572Z" fill="#D1D6E3"/>
<path d="M0 522.306C202.703 522.306 347.472 487.969 480.333 490.061C789.74 494.931 643.639 350.182 960.667 350.182C1305.86 350.182 1223.24 222.505 1441 222.505" stroke="#5F82FF" stroke-width="3"/>
<path d="M480.333 490.061C347.472 487.969 202.703 522.306 0 522.306V564.139H1441V222.505C1223.24 222.505 1305.86 350.182 960.667 350.182C643.639 350.182 789.74 494.931 480.333 490.061Z" fill="url(#paint1_linear_91_65)" fill-opacity="0.4"/>
<path d="M924.5 303.237V489.314" stroke="#D8E0F7"/>
<g filter="url(#filter1_d_91_65)">
<path d="M924.5 358.371C928.642 358.371 932 355.065 932 350.987C932 346.909 928.642 343.603 924.5 343.603C920.358 343.603 917 346.909 917 350.987C917 355.065 920.358 358.371 924.5 358.371Z" fill="white"/>
<path d="M924.5 357.387C928.09 357.387 931 354.521 931 350.987C931 347.453 928.09 344.588 924.5 344.588C920.91 344.588 918 347.453 918 350.987C918 354.521 920.91 357.387 924.5 357.387Z" stroke="#5E80FE" stroke-width="2"/>
</g>
<path d="M1332.5 106.33V418.428" stroke="#D8E0F7"/>
<g filter="url(#filter2_d_91_65)">
<path d="M1332.5 246.134C1336.64 246.134 1340 242.828 1340 238.75C1340 234.672 1336.64 231.366 1332.5 231.366C1328.36 231.366 1325 234.672 1325 238.75C1325 242.828 1328.36 246.134 1332.5 246.134Z" fill="white"/>
<path d="M1332.5 245.149C1336.09 245.149 1339 242.284 1339 238.75C1339 235.216 1336.09 232.351 1332.5 232.351C1328.91 232.351 1326 235.216 1326 238.75C1326 242.284 1328.91 245.149 1332.5 245.149Z" stroke="#5E80FE" stroke-width="2"/>
</g>
<path d="M515.5 478.485V536.572" stroke="#D8E0F7"/>
<path d="M107.5 364.278V551.34" stroke="#D8E0F7"/>
<g filter="url(#filter3_d_91_65)">
<path d="M107.5 526.727C111.642 526.727 115 523.421 115 519.343C115 515.265 111.642 511.959 107.5 511.959C103.358 511.959 100 515.265 100 519.343C100 523.421 103.358 526.727 107.5 526.727Z" fill="white"/>
<path d="M107.5 525.742C111.09 525.742 114 522.877 114 519.343C114 515.808 111.09 512.943 107.5 512.943C103.91 512.943 101 515.808 101 519.343C101 522.877 103.91 525.742 107.5 525.742Z" stroke="#5E80FE" stroke-width="2"/>
</g>
<g filter="url(#filter4_d_91_65)">
<path d="M264.72 395.272C258.247 395.272 253 400.539 253 407.036H276.441C276.441 400.539 271.194 395.272 264.72 395.272Z" fill="white"/>
</g>
<g filter="url(#filter5_d_91_65)">
<path d="M310.683 401.154C301.672 401.154 294.366 408.447 294.366 417.443H327C327 408.447 319.695 401.154 310.683 401.154Z" fill="white"/>
</g>
<g filter="url(#filter6_d_91_65)">
<path d="M286.093 393.009C272.386 393.009 261.273 403.948 261.273 417.443H310.913C310.913 403.948 299.801 393.009 286.093 393.009Z" fill="white"/>
</g>
<g filter="url(#filter7_d_91_65)">
<path d="M1205.01 489.766C1186.23 489.766 1171 504.992 1171 523.773H1239.02C1239.02 504.992 1223.79 489.766 1205.01 489.766Z" fill="white"/>
</g>
<g filter="url(#filter8_d_91_65)">
<path d="M1181.68 460.763C1168.6 460.763 1158 471.377 1158 484.471H1205.37C1205.37 471.377 1194.76 460.763 1181.68 460.763Z" fill="white"/>
</g>
<g filter="url(#filter9_d_91_65)">
<path d="M1136.73 472.763C1108.16 472.763 1085 495.602 1085 523.773H1188.47C1188.47 495.602 1165.31 472.763 1136.73 472.763Z" fill="white"/>
</g>
<g filter="url(#filter10_d_91_65)">
<path d="M1262.91 55.134C1241.42 55.134 1224 72.3249 1224 93.5309H1301.81C1301.81 72.3249 1284.39 55.134 1262.91 55.134Z" fill="white"/>
</g>
<g filter="url(#filter11_d_91_65)">
<path d="M1279.5 87.6237C1267.07 87.6237 1257 97.762 1257 110.268H1302C1302 97.762 1291.93 87.6237 1279.5 87.6237Z" fill="white"/>
</g>
<g filter="url(#filter12_d_91_65)">
<path d="M275.5 93.5309C263.074 93.5309 253 103.669 253 116.175H298C298 103.669 287.926 93.5309 275.5 93.5309Z" fill="white"/>
</g>
<g filter="url(#filter13_d_91_65)">
<path d="M75 251.057C75 209.732 41.6452 176.232 0.5 176.232V251.057H75Z" fill="white"/>
</g>
<g filter="url(#filter14_d_91_65)">
<path d="M317.112 382.984C311.651 382.984 307.224 387.473 307.224 393.009H327C327 387.473 322.573 382.984 317.112 382.984Z" fill="white"/>
</g>
<g filter="url(#filter15_d_91_65)">
<path d="M1223.5 39.3815C1214.94 39.3815 1208 46.4341 1208 55.134H1239C1239 46.4341 1232.06 39.3815 1223.5 39.3815Z" fill="white"/>
</g>
<g filter="url(#filter16_d_91_65)">
<path d="M515.5 497.191C519.642 497.191 523 493.885 523 489.807C523 485.729 519.642 482.423 515.5 482.423C511.358 482.423 508 485.729 508 489.807C508 493.885 511.358 497.191 515.5 497.191Z" fill="white"/>
<path d="M515.5 496.206C519.09 496.206 522 493.341 522 489.807C522 486.272 519.09 483.407 515.5 483.407C511.91 483.407 509 486.272 509 489.807C509 493.341 511.91 496.206 515.5 496.206Z" stroke="#5E80FE" stroke-width="2"/>
</g>
<g filter="url(#filter17_d_91_65)">
<mask id="mask0_91_65" style="mask-type:alpha" maskUnits="userSpaceOnUse" x="470" y="401" width="92" height="68">
<path fill-rule="evenodd" clip-rule="evenodd" d="M562 404.644C562 403.013 560.657 401.691 559 401.691H473C471.343 401.691 470 403.013 470 404.644V461.019C470 462.65 471.343 463.972 473 463.972H509.669C510.665 463.972 511.596 464.459 512.154 465.271L513.515 467.252C514.705 468.984 517.295 468.984 518.485 467.252L519.846 465.271C520.404 464.459 521.335 463.972 522.331 463.972H559C560.657 463.972 562 462.65 562 461.019V404.644Z" fill="white"/>
</mask>
<g mask="url(#mask0_91_65)">
<path fill-rule="evenodd" clip-rule="evenodd" d="M562 404.644C562 403.013 560.657 401.691 559 401.691H473C471.343 401.691 470 403.013 470 404.644V461.019C470 462.65 471.343 463.972 473 463.972H509.669C510.665 463.972 511.596 464.459 512.154 465.271L513.515 467.252C514.705 468.984 517.295 468.984 518.485 467.252L519.846 465.271C520.404 464.459 521.335 463.972 522.331 463.972H559C560.657 463.972 562 462.65 562 461.019V404.644Z" fill="white"/>
<path d="M519.846 465.271L519.017 464.72L519.846 465.271ZM513.515 467.252L514.343 466.701L513.515 467.252ZM518.485 467.252L519.313 467.803L518.485 467.252ZM473 402.675H559V400.706H473V402.675ZM471 461.019V404.644H469V461.019H471ZM509.669 462.988H473V464.957H509.669V462.988ZM514.343 466.701L512.983 464.72L511.326 465.823L512.687 467.803L514.343 466.701ZM519.017 464.72L517.657 466.701L519.313 467.803L520.674 465.823L519.017 464.72ZM559 462.988H522.331V464.957H559V462.988ZM561 404.644V461.019H563V404.644H561ZM559 464.957C561.209 464.957 563 463.194 563 461.019H561C561 462.107 560.105 462.988 559 462.988V464.957ZM520.674 465.823C521.046 465.282 521.667 464.957 522.331 464.957V462.988C521.003 462.988 519.761 463.637 519.017 464.72L520.674 465.823ZM512.687 467.803C514.273 470.113 517.727 470.113 519.313 467.803L517.657 466.701C516.863 467.855 515.136 467.855 514.343 466.701L512.687 467.803ZM509.669 464.957C510.333 464.957 510.954 465.282 511.326 465.823L512.983 464.72C512.239 463.637 510.997 462.988 509.669 462.988V464.957ZM469 461.019C469 463.194 470.791 464.957 473 464.957V462.988C471.895 462.988 471 462.107 471 461.019H469ZM559 402.675C560.105 402.675 561 403.556 561 404.644H563C563 402.469 561.209 400.706 559 400.706V402.675ZM473 400.706C470.791 400.706 469 402.469 469 404.644H471C471 403.556 471.895 402.675 473 402.675V400.706Z" fill="#D8E0F7"/>
<path d="M499 434.427C499 425.047 506.668 417.443 516.128 417.443C517.871 417.443 519.554 417.701 521.139 418.182" stroke="#5F82FF" stroke-width="4" stroke-linecap="round" stroke-linejoin="round"/>
<path fill-rule="evenodd" clip-rule="evenodd" d="M512.441 438.081C514.477 440.1 517.778 440.1 519.813 438.081C521.849 436.063 530.276 421.874 529.532 421.135C528.787 420.397 514.477 428.753 512.441 430.772C510.406 432.79 510.406 436.063 512.441 438.081ZM516.127 435.903C516.95 435.903 517.617 435.242 517.617 434.427C517.617 433.611 516.95 432.95 516.127 432.95C515.305 432.95 514.638 433.611 514.638 434.427C514.638 435.242 515.305 435.903 516.127 435.903Z" fill="#5F82FF"/>
<path d="M501.234 444.764C502.057 444.764 502.723 444.103 502.723 443.287C502.723 442.472 502.057 441.811 501.234 441.811C500.411 441.811 499.745 442.472 499.745 443.287C499.745 444.103 500.411 444.764 501.234 444.764Z" fill="#5F82FF"/>
<path d="M507.191 450.671C508.014 450.671 508.68 450.01 508.68 449.195C508.68 448.379 508.014 447.718 507.191 447.718C506.368 447.718 505.702 448.379 505.702 449.195C505.702 450.01 506.368 450.671 507.191 450.671Z" fill="#5F82FF"/>
<path d="M516.128 452.887C516.951 452.887 517.617 452.225 517.617 451.41C517.617 450.594 516.951 449.933 516.128 449.933C515.305 449.933 514.639 450.594 514.639 451.41C514.639 452.225 515.305 452.887 516.128 452.887Z" fill="#5F82FF"/>
<path d="M525.064 450.671C525.887 450.671 526.553 450.01 526.553 449.195C526.553 448.379 525.887 447.718 525.064 447.718C524.241 447.718 523.575 448.379 523.575 449.195C523.575 450.01 524.241 450.671 525.064 450.671Z" fill="#5F82FF"/>
<path d="M530.277 444.764C531.1 444.764 531.766 444.103 531.766 443.287C531.766 442.472 531.1 441.811 530.277 441.811C529.454 441.811 528.788 442.472 528.788 443.287C528.788 444.103 529.454 444.764 530.277 444.764Z" fill="#5F82FF"/>
<path d="M532.511 435.903C533.334 435.903 534 435.242 534 434.427C534 433.611 533.334 432.95 532.511 432.95C531.688 432.95 531.022 433.611 531.022 434.427C531.022 435.242 531.688 435.903 532.511 435.903Z" fill="#5F82FF"/>
</g>
</g>
<defs>
<filter id="filter0_d_91_65" x="1339" y="363.66" width="145.5" height="144.149" filterUnits="userSpaceOnUse" color-interpolation-filters="sRGB">
<feFlood flood-opacity="0" result="BackgroundImageFix"/>
<feColorMatrix in="SourceAlpha" type="matrix" values="0 0 0 0 0 0 0 0 0 0 0 0 0 0 0 0 0 0 127 0" result="hardAlpha"/>
<feOffset dy="5"/>
<feGaussianBlur stdDeviation="22.5"/>
<feColorMatrix type="matrix" values="0 0 0 0 0.593724 0 0 0 0 0.684469 0 0 0 0 0.888646 0 0 0 0.1 0"/>
<feBlend mode="normal" in2="BackgroundImageFix" result="effect1_dropShadow_91_65"/>
<feBlend mode="normal" in="SourceGraphic" in2="effect1_dropShadow_91_65" result="shape"/>
</filter>
<filter id="filter1_d_91_65" x="902" y="328.588" width="45" height="44.799" filterUnits="userSpaceOnUse" color-interpolation-filters="sRGB">
<feFlood flood-opacity="0" result="BackgroundImageFix"/>
<feColorMatrix in="SourceAlpha" type="matrix" values="0 0 0 0 0 0 0 0 0 0 0 0 0 0 0 0 0 0 127 0" result="hardAlpha"/>
<feOffset/>
<feGaussianBlur stdDeviation="7.5"/>
<feColorMatrix type="matrix" values="0 0 0 0 0.323144 0 0 0 0 0.512664 0 0 0 0 1 0 0 0 0.25 0"/>
<feBlend mode="normal" in2="BackgroundImageFix" result="effect1_dropShadow_91_65"/>
<feBlend mode="normal" in="SourceGraphic" in2="effect1_dropShadow_91_65" result="shape"/>
</filter>
<filter id="filter2_d_91_65" x="1310" y="216.351" width="45" height="44.799" filterUnits="userSpaceOnUse" color-interpolation-filters="sRGB">
<feFlood flood-opacity="0" result="BackgroundImageFix"/>
<feColorMatrix in="SourceAlpha" type="matrix" values="0 0 0 0 0 0 0 0 0 0 0 0 0 0 0 0 0 0 127 0" result="hardAlpha"/>
<feOffset/>
<feGaussianBlur stdDeviation="7.5"/>
<feColorMatrix type="matrix" values="0 0 0 0 0.323144 0 0 0 0 0.512664 0 0 0 0 1 0 0 0 0.25 0"/>
<feBlend mode="normal" in2="BackgroundImageFix" result="effect1_dropShadow_91_65"/>
<feBlend mode="normal" in="SourceGraphic" in2="effect1_dropShadow_91_65" result="shape"/>
</filter>
<filter id="filter3_d_91_65" x="85" y="496.943" width="45" height="44.799" filterUnits="userSpaceOnUse" color-interpolation-filters="sRGB">
<feFlood flood-opacity="0" result="BackgroundImageFix"/>
<feColorMatrix in="SourceAlpha" type="matrix" values="0 0 0 0 0 0 0 0 0 0 0 0 0 0 0 0 0 0 127 0" result="hardAlpha"/>
<feOffset/>
<feGaussianBlur stdDeviation="7.5"/>
<feColorMatrix type="matrix" values="0 0 0 0 0.323144 0 0 0 0 0.512664 0 0 0 0 1 0 0 0 0.25 0"/>
<feBlend mode="normal" in2="BackgroundImageFix" result="effect1_dropShadow_91_65"/>
<feBlend mode="normal" in="SourceGraphic" in2="effect1_dropShadow_91_65" result="shape"/>
</filter>
<filter id="filter4_d_91_65" x="208" y="355.272" width="113.441" height="101.764" filterUnits="userSpaceOnUse" color-interpolation-filters="sRGB">
<feFlood flood-opacity="0" result="BackgroundImageFix"/>
<feColorMatrix in="SourceAlpha" type="matrix" values="0 0 0 0 0 0 0 0 0 0 0 0 0 0 0 0 0 0 127 0" result="hardAlpha"/>
<feOffset dy="5"/>
<feGaussianBlur stdDeviation="22.5"/>
<feColorMatrix type="matrix" values="0 0 0 0 0.593724 0 0 0 0 0.684469 0 0 0 0 0.888646 0 0 0 0.1 0"/>
<feBlend mode="normal" in2="BackgroundImageFix" result="effect1_dropShadow_91_65"/>
<feBlend mode="normal" in="SourceGraphic" in2="effect1_dropShadow_91_65" result="shape"/>
</filter>
<filter id="filter5_d_91_65" x="249.366" y="361.154" width="122.634" height="106.289" filterUnits="userSpaceOnUse" color-interpolation-filters="sRGB">
<feFlood flood-opacity="0" result="BackgroundImageFix"/>
<feColorMatrix in="SourceAlpha" type="matrix" values="0 0 0 0 0 0 0 0 0 0 0 0 0 0 0 0 0 0 127 0" result="hardAlpha"/>
<feOffset dy="5"/>
<feGaussianBlur stdDeviation="22.5"/>
<feColorMatrix type="matrix" values="0 0 0 0 0.593724 0 0 0 0 0.684469 0 0 0 0 0.888646 0 0 0 0.1 0"/>
<feBlend mode="normal" in2="BackgroundImageFix" result="effect1_dropShadow_91_65"/>
<feBlend mode="normal" in="SourceGraphic" in2="effect1_dropShadow_91_65" result="shape"/>
</filter>
<filter id="filter6_d_91_65" x="216.273" y="353.009" width="139.64" height="114.434" filterUnits="userSpaceOnUse" color-interpolation-filters="sRGB">
<feFlood flood-opacity="0" result="BackgroundImageFix"/>
<feColorMatrix in="SourceAlpha" type="matrix" values="0 0 0 0 0 0 0 0 0 0 0 0 0 0 0 0 0 0 127 0" result="hardAlpha"/>
<feOffset dy="5"/>
<feGaussianBlur stdDeviation="22.5"/>
<feColorMatrix type="matrix" values="0 0 0 0 0.593724 0 0 0 0 0.684469 0 0 0 0 0.888646 0 0 0 0.1 0"/>
<feBlend mode="normal" in2="BackgroundImageFix" result="effect1_dropShadow_91_65"/>
<feBlend mode="normal" in="SourceGraphic" in2="effect1_dropShadow_91_65" result="shape"/>
</filter>
<filter id="filter7_d_91_65" x="1126" y="449.766" width="158.02" height="124.007" filterUnits="userSpaceOnUse" color-interpolation-filters="sRGB">
<feFlood flood-opacity="0" result="BackgroundImageFix"/>
<feColorMatrix in="SourceAlpha" type="matrix" values="0 0 0 0 0 0 0 0 0 0 0 0 0 0 0 0 0 0 127 0" result="hardAlpha"/>
<feOffset dy="5"/>
<feGaussianBlur stdDeviation="22.5"/>
<feColorMatrix type="matrix" values="0 0 0 0 0.593724 0 0 0 0 0.684469 0 0 0 0 0.888646 0 0 0 0.1 0"/>
<feBlend mode="normal" in2="BackgroundImageFix" result="effect1_dropShadow_91_65"/>
<feBlend mode="normal" in="SourceGraphic" in2="effect1_dropShadow_91_65" result="shape"/>
</filter>
<filter id="filter8_d_91_65" x="1113" y="420.763" width="137.37" height="113.709" filterUnits="userSpaceOnUse" color-interpolation-filters="sRGB">
<feFlood flood-opacity="0" result="BackgroundImageFix"/>
<feColorMatrix in="SourceAlpha" type="matrix" values="0 0 0 0 0 0 0 0 0 0 0 0 0 0 0 0 0 0 127 0" result="hardAlpha"/>
<feOffset dy="5"/>
<feGaussianBlur stdDeviation="22.5"/>
<feColorMatrix type="matrix" values="0 0 0 0 0.593724 0 0 0 0 0.684469 0 0 0 0 0.888646 0 0 0 0.1 0"/>
<feBlend mode="normal" in2="BackgroundImageFix" result="effect1_dropShadow_91_65"/>
<feBlend mode="normal" in="SourceGraphic" in2="effect1_dropShadow_91_65" result="shape"/>
</filter>
<filter id="filter9_d_91_65" x="1040" y="432.763" width="193.47" height="141.01" filterUnits="userSpaceOnUse" color-interpolation-filters="sRGB">
<feFlood flood-opacity="0" result="BackgroundImageFix"/>
<feColorMatrix in="SourceAlpha" type="matrix" values="0 0 0 0 0 0 0 0 0 0 0 0 0 0 0 0 0 0 127 0" result="hardAlpha"/>
<feOffset dy="5"/>
<feGaussianBlur stdDeviation="22.5"/>
<feColorMatrix type="matrix" values="0 0 0 0 0.593724 0 0 0 0 0.684469 0 0 0 0 0.888646 0 0 0 0.1 0"/>
<feBlend mode="normal" in2="BackgroundImageFix" result="effect1_dropShadow_91_65"/>
<feBlend mode="normal" in="SourceGraphic" in2="effect1_dropShadow_91_65" result="shape"/>
</filter>
<filter id="filter10_d_91_65" x="1179" y="15.134" width="167.81" height="128.397" filterUnits="userSpaceOnUse" color-interpolation-filters="sRGB">
<feFlood flood-opacity="0" result="BackgroundImageFix"/>
<feColorMatrix in="SourceAlpha" type="matrix" values="0 0 0 0 0 0 0 0 0 0 0 0 0 0 0 0 0 0 127 0" result="hardAlpha"/>
<feOffset dy="5"/>
<feGaussianBlur stdDeviation="22.5"/>
<feColorMatrix type="matrix" values="0 0 0 0 0.593724 0 0 0 0 0.684469 0 0 0 0 0.888646 0 0 0 0.1 0"/>
<feBlend mode="normal" in2="BackgroundImageFix" result="effect1_dropShadow_91_65"/>
<feBlend mode="normal" in="SourceGraphic" in2="effect1_dropShadow_91_65" result="shape"/>
</filter>
<filter id="filter11_d_91_65" x="1212" y="47.6237" width="135" height="112.644" filterUnits="userSpaceOnUse" color-interpolation-filters="sRGB">
<feFlood flood-opacity="0" result="BackgroundImageFix"/>
<feColorMatrix in="SourceAlpha" type="matrix" values="0 0 0 0 0 0 0 0 0 0 0 0 0 0 0 0 0 0 127 0" result="hardAlpha"/>
<feOffset dy="5"/>
<feGaussianBlur stdDeviation="22.5"/>
<feColorMatrix type="matrix" values="0 0 0 0 0.593724 0 0 0 0 0.684469 0 0 0 0 0.888646 0 0 0 0.1 0"/>
<feBlend mode="normal" in2="BackgroundImageFix" result="effect1_dropShadow_91_65"/>
<feBlend mode="normal" in="SourceGraphic" in2="effect1_dropShadow_91_65" result="shape"/>
</filter>
<filter id="filter12_d_91_65" x="208" y="53.5309" width="135" height="112.644" filterUnits="userSpaceOnUse" color-interpolation-filters="sRGB">
<feFlood flood-opacity="0" result="BackgroundImageFix"/>
<feColorMatrix in="SourceAlpha" type="matrix" values="0 0 0 0 0 0 0 0 0 0 0 0 0 0 0 0 0 0 127 0" result="hardAlpha"/>
<feOffset dy="5"/>
<feGaussianBlur stdDeviation="22.5"/>
<feColorMatrix type="matrix" values="0 0 0 0 0.593724 0 0 0 0 0.684469 0 0 0 0 0.888646 0 0 0 0.1 0"/>
<feBlend mode="normal" in2="BackgroundImageFix" result="effect1_dropShadow_91_65"/>
<feBlend mode="normal" in="SourceGraphic" in2="effect1_dropShadow_91_65" result="shape"/>
</filter>
<filter id="filter13_d_91_65" x="-44.5" y="136.232" width="164.5" height="164.825" filterUnits="userSpaceOnUse" color-interpolation-filters="sRGB">
<feFlood flood-opacity="0" result="BackgroundImageFix"/>
<feColorMatrix in="SourceAlpha" type="matrix" values="0 0 0 0 0 0 0 0 0 0 0 0 0 0 0 0 0 0 127 0" result="hardAlpha"/>
<feOffset dy="5"/>
<feGaussianBlur stdDeviation="22.5"/>
<feColorMatrix type="matrix" values="0 0 0 0 0.593724 0 0 0 0 0.684469 0 0 0 0 0.888646 0 0 0 0.1 0"/>
<feBlend mode="normal" in2="BackgroundImageFix" result="effect1_dropShadow_91_65"/>
<feBlend mode="normal" in="SourceGraphic" in2="effect1_dropShadow_91_65" result="shape"/>
</filter>
<filter id="filter14_d_91_65" x="262.224" y="342.984" width="109.776" height="100.025" filterUnits="userSpaceOnUse" color-interpolation-filters="sRGB">
<feFlood flood-opacity="0" result="BackgroundImageFix"/>
<feColorMatrix in="SourceAlpha" type="matrix" values="0 0 0 0 0 0 0 0 0 0 0 0 0 0 0 0 0 0 127 0" result="hardAlpha"/>
<feOffset dy="5"/>
<feGaussianBlur stdDeviation="22.5"/>
<feColorMatrix type="matrix" values="0 0 0 0 0.593724 0 0 0 0 0.684469 0 0 0 0 0.888646 0 0 0 0.1 0"/>
<feBlend mode="normal" in2="BackgroundImageFix" result="effect1_dropShadow_91_65"/>
<feBlend mode="normal" in="SourceGraphic" in2="effect1_dropShadow_91_65" result="shape"/>
</filter>
<filter id="filter15_d_91_65" x="1163" y="-0.61853" width="121" height="105.753" filterUnits="userSpaceOnUse" color-interpolation-filters="sRGB">
<feFlood flood-opacity="0" result="BackgroundImageFix"/>
<feColorMatrix in="SourceAlpha" type="matrix" values="0 0 0 0 0 0 0 0 0 0 0 0 0 0 0 0 0 0 127 0" result="hardAlpha"/>
<feOffset dy="5"/>
<feGaussianBlur stdDeviation="22.5"/>
<feColorMatrix type="matrix" values="0 0 0 0 0.593724 0 0 0 0 0.684469 0 0 0 0 0.888646 0 0 0 0.1 0"/>
<feBlend mode="normal" in2="BackgroundImageFix" result="effect1_dropShadow_91_65"/>
<feBlend mode="normal" in="SourceGraphic" in2="effect1_dropShadow_91_65" result="shape"/>
</filter>
<filter id="filter16_d_91_65" x="493" y="467.407" width="45" height="44.799" filterUnits="userSpaceOnUse" color-interpolation-filters="sRGB">
<feFlood flood-opacity="0" result="BackgroundImageFix"/>
<feColorMatrix in="SourceAlpha" type="matrix" values="0 0 0 0 0 0 0 0 0 0 0 0 0 0 0 0 0 0 127 0" result="hardAlpha"/>
<feOffset/>
<feGaussianBlur stdDeviation="7.5"/>
<feColorMatrix type="matrix" values="0 0 0 0 0.323144 0 0 0 0 0.512664 0 0 0 0 1 0 0 0 0.25 0"/>
<feBlend mode="normal" in2="BackgroundImageFix" result="effect1_dropShadow_91_65"/>
<feBlend mode="normal" in="SourceGraphic" in2="effect1_dropShadow_91_65" result="shape"/>
</filter>
<filter id="filter17_d_91_65" x="440" y="381.691" width="152" height="126.86" filterUnits="userSpaceOnUse" color-interpolation-filters="sRGB">
<feFlood flood-opacity="0" result="BackgroundImageFix"/>
<feColorMatrix in="SourceAlpha" type="matrix" values="0 0 0 0 0 0 0 0 0 0 0 0 0 0 0 0 0 0 127 0" result="hardAlpha"/>
<feOffset dy="10"/>
<feGaussianBlur stdDeviation="15"/>
<feColorMatrix type="matrix" values="0 0 0 0 0.894415 0 0 0 0 0.918495 0 0 0 0 0.984716 0 0 0 1 0"/>
<feBlend mode="normal" in2="BackgroundImageFix" result="effect1_dropShadow_91_65"/>
<feBlend mode="normal" in="SourceGraphic" in2="effect1_dropShadow_91_65" result="shape"/>
</filter>
<linearGradient id="paint0_linear_91_65" x1="720" y1="2.95361" x2="720" y2="564.139" gradientUnits="userSpaceOnUse">
<stop stop-color="#F4F7FF"/>
<stop offset="1" stop-color="#F1F5FF"/>
</linearGradient>
<linearGradient id="paint1_linear_91_65" x1="278.466" y1="564.575" x2="278.466" y2="116.18" gradientUnits="userSpaceOnUse">
<stop stop-color="#4B71FF" stop-opacity="0"/>
<stop offset="1" stop-color="#6B89F8"/>
</linearGradient>
</defs>
</svg>
