<svg width="15" height="13" viewBox="0 0 15 13" fill="none" xmlns="http://www.w3.org/2000/svg">
<path d="M5.81979 12.0232C5.38197 12.0232 5.45636 11.8651 5.30536 11.4663L4.01788 7.41343L13.9283 1.78981" fill="#9399AB"/>
<path d="M5.8197 12.0232C6.15756 12.0232 6.30684 11.8754 6.49542 11.7001L8.29732 10.0241L6.04967 8.72774" fill="#70788E"/>
<path d="M6.04945 8.72806L11.4957 12.5768C12.1172 12.9048 12.5657 12.735 12.7205 12.0249L14.9374 2.03246C15.1644 1.16206 14.5906 0.76729 13.996 1.02547L0.978404 5.82666C0.0898302 6.16756 0.0950105 6.64173 0.816436 6.85301L4.15705 7.85032L11.8909 3.18335C12.256 2.97158 12.5911 3.08543 12.3161 3.31891" fill="#B6BAC7"/>
</svg>
